<svg width="227" height="226" viewBox="0 0 227 226" fill="none" xmlns="http://www.w3.org/2000/svg">
<path d="M113.86 112.86H226.69C226.69 174.76 175.76 225.69 113.86 225.69C113.82 225.69 113.78 225.69 113.74 225.69L113.86 112.86Z" fill="url(#paint0_linear_88_1763)"/>
<path d="M54.3398 53.4899C1.40981 106.56 38.9998 197.13 113.95 197.13C160.45 197.13 198.14 159.44 198.14 112.94C198.14 37.8799 107.35 0.349941 54.3398 53.4899Z" stroke="black" stroke-width="1.18" stroke-miterlimit="10" stroke-dasharray="5.88 5.88"/>
<path d="M61.8602 61C15.6202 107.36 48.4602 186.49 113.94 186.49C154.56 186.49 187.49 153.56 187.49 112.94C187.49 47.37 108.17 14.57 61.8702 61H61.8602Z" fill="white"/>
<path d="M101.77 100.8C91.02 111.58 98.65 129.97 113.88 129.97C123.32 129.97 130.98 122.32 130.98 112.87C130.98 97.63 112.54 90 101.78 100.8H101.77Z" fill="#3F3F3F"/>
<defs>
<linearGradient id="paint0_linear_88_1763" x1="89.3602" y1="115.69" x2="199.12" y2="188.43" gradientUnits="userSpaceOnUse">
<stop offset="0.36" stop-color="#8EC8A6"/>
<stop offset="1" stop-color="#F3706A"/>
</linearGradient>
</defs>
</svg>
