<svg width="1360" height="284" viewBox="0 0 1360 284" fill="none" xmlns="http://www.w3.org/2000/svg">
<path d="M1111.78 255.42V227.67H1139.26V255.37L1111.78 255.42ZM995.12 282.86H1079.37V255.42H1056.65V227.81H1079.37V200.37H1029.35V234.6L995.12 200.37V233.65L1016.88 255.41H995.12V282.85V282.86ZM722.03 282.86H806.28V255.42H783.56V227.81H806.28V200.37H756.26V234.6L722.03 200.37V233.65L743.79 255.41H722.03V282.85V282.86ZM913.17 182.55V27.5H940.67V200.23H886.67V227.68H940.71V255.42H886.67V282.86H968.15V0.0199966H886.54V155.07H859.06V0.0199966H831.58V182.55H913.17ZM1193.37 182.55V27.5H1220.87V200.23H1166.87V227.68H1220.91V255.42H1166.87V282.86H1248.35V0.0199966H1166.74V155.07H1139.26V0.0199966H1111.78V182.55H1193.37ZM995.12 182.6H1079.37V100.28H995.12V127.73H1056.65V155.17H995.12V182.61V182.6ZM305.79 255.37V227.67H278.31V255.42L305.79 255.37ZM163.78 283.27H248.16V255.79H225.4V228.14H248.16V200.66H198.07V234.95L163.78 200.66V233.99L185.58 255.79H163.78V283.27ZM27.52 228H0V255.79L27.52 255.74V228ZM1336.84 127.72V155.16H1275.31V182.6H1359.56V100.28H1275.31V127.73H1336.84V127.72ZM1275.31 200.37V233.65L1297.07 255.41H1275.31V282.85H1359.56V255.41H1336.84V227.8H1359.56V200.36H1309.54V234.59L1275.31 200.36V200.37ZM1359.56 82.35V54.9H1302.76V27.46H1359.56V0.0199966H1275.31V82.34H1359.56V82.35ZM1079.37 0.0199966H995.12V82.34H1079.37V54.89H1022.57V27.45H1079.37V0.0100021V0.0199966ZM441.84 182.6H526.09V100.28H441.84V127.73H503.37V155.17H441.84V182.61V182.6ZM859.07 255.37V227.67H831.59V255.42L859.07 255.37ZM163.78 182.86H248.16V100.41H163.78V127.9H225.41V155.38H163.78V182.86ZM359.9 182.55V27.5H387.4V200.23H333.4V227.68H387.44V255.42H333.4V282.86H414.88V0.0199966H333.27V155.07H305.79V0.0199966H278.31V182.55H359.9ZM27.52 0.0100021H0V182.82H81.72V27.53H109.26V200.52H55.18V228.01H109.3V255.8H55.18V283.28H136.79V0.0100021H55.06V155.3H27.53V0.0100021H27.52ZM248.16 82.45V54.96H191.27V27.48H248.16V0H163.78V82.45H248.16ZM526.09 0.0199966H441.84V82.34H526.09V54.89H469.29V27.45H526.09V0.0100021V0.0199966ZM585.98 255.37V227.67H558.5V255.42L585.98 255.37ZM722.03 182.6H806.28V100.28H722.03V127.73H783.56V155.17H722.03V182.61V182.6ZM806.28 0.0199966H722.03V82.34H806.28V54.89H749.48V27.45H806.28V0.0100021V0.0199966ZM640.09 182.55V27.5H667.59V200.23H613.59V227.68H667.63V255.42H613.59V282.86H695.07V0.0199966H613.46V155.07H585.98V0.0199966H558.5V182.55H640.09ZM441.84 282.86H526.09V255.42H503.37V227.81H526.09V200.37H476.07V234.6L441.84 200.37V233.65L463.6 255.41H441.84V282.85V282.86Z" fill="white"/>
</svg>
