<svg xmlns="http://www.w3.org/2000/svg" width="290" height="1390" fill="none" viewBox="0 0 290 1390">
  <g clip-path="url(#a)">
    <path fill="#F3706A" d="M28.46 1135.88h28.35v28.08h-28.3l-.05-28.08ZM.43 1016.69v86.08h28.03v-23.21h28.21v23.22H84.7v-51.1H49.72l34.98-34.98h-34l-22.24 22.24v-22.23H.43v-.02Zm0-279v86.08h28.03v-23.21h28.21v23.22H84.7v-51.1H49.72L84.7 737.7h-34l-22.24 22.24V737.7H.43v-.01Zm102.48 195.28h158.41v28.09H84.85v-55.17H56.81v55.21H28.46v-55.21H.43v83.25h288.96v-83.38H130.98v-28.08h158.41v-28.07H102.91v83.36Zm0 286.27h158.41v28.09H84.85v-55.17H56.81v55.21H28.46v-55.21H.43v83.25h288.96v-83.38H130.98v-28.08h158.41v-28.07H102.91v83.36Zm-.05-202.55v86.08h84.11v-86.08h-28.04v62.86H130.9v-62.86h-28.04ZM28.51 312.42h28.3v-28.08H28.46l.05 28.08ZM0 167.33v86.21h28.07v-23.25h28.25v23.25h28.07v-51.18H49.36l35.03-35.03H50.33L28.06 189.6v-22.27H0ZM56.47 28.12V0h-28.4l.05 28.12h28.35Zm102.45 1337.7h-28.03v-62.86h-28.03v86.08h84.11v-86.08h-28.04v62.86h-.01Zm-74.22-62.87h-34l-22.24 22.24v-22.24H.43v86.08h28.03v-23.21h28.21v23.22H84.7v-51.1H49.72l34.98-34.98v-.01Zm120.58 86.08h28.04v-58.04h28.03v58.04h28.03v-86.08h-84.11v86.08h.01Zm84.11-286.27v-86.08h-84.11v86.08h28.04v-58.04h28.03v58.04h28.04ZM102.86 451.42v86.08h84.11v-86.08h-28.04v62.86H130.9v-62.86h-28.04ZM28.51 877.69h28.3v-28.08H28.46l.05 28.08Zm74.08-710.36v86.21h84.24v-86.21h-28.08v62.96h-28.08v-62.96h-28.08Zm.32 200.37h158.41v28.09H84.85v-55.17H56.81v55.21H28.46v-55.21H.43v83.25h288.96v-83.38H130.98v-28.08h158.41v-28.07H102.91v83.36Zm186.5-339.58V0H102.64v83.49h158.65v28.14H84.55V56.37H56.47v55.29H28.08V56.37H0v83.38h289.41V56.24H130.76V28.12h158.65Zm-84.24 225.42h28.08v-58.13h28.08v58.13h28.07v-86.21h-84.24v86.21h.01Zm84.22 283.96v-86.08h-84.11v86.08h28.04v-58.04h28.03v58.04h28.04ZM28.51 598.69h28.3v-28.08H28.46l.05 28.08Zm74.35 139v86.08h84.11v-86.08h-28.04v62.86H130.9v-62.86h-28.04Zm186.53 86.07v-86.08h-84.11v86.08h28.04v-58.04h28.03v58.04h28.04ZM102.91 653.97h158.41v28.09H84.85v-55.17H56.81v55.21H28.46v-55.21H.43v83.25h288.96v-83.38H130.98v-28.08h158.41v-28.07H102.91v83.36ZM.43 451.42v86.08h28.03v-23.21h28.21v23.22H84.7v-51.1H49.72l34.98-34.98h-34l-22.24 22.24v-22.23H.43v-.02Z"/>
  </g>
  <defs>
    <clipPath id="a">
      <path fill="#fff" d="M0 0h289.41v1389.03H0z"/>
    </clipPath>
  </defs>
</svg>
