<svg width="202" height="181" viewBox="0 0 202 181" fill="none" xmlns="http://www.w3.org/2000/svg">
<g clip-path="url(#clip0_86_1717)">
<path d="M202 0V180.707L0 180.797V29.3678L29.3678 0H202Z" fill="#3F3F3F"/>
<path d="M34.0371 16.2291L34.0628 32.3788H50.3411V16.2291H34.0371Z" fill="white"/>
<path d="M184.09 32.3657V16.2289H76.841V64.1637H167.94V80.3134H66.4646V48.5926H50.3406V80.3391H34.0366V48.5926H17.9126V96.4631H184.09V48.5155H92.9908V32.3657H184.09Z" fill="white"/>
<path d="M125.187 112.304V164.572H76.8154V112.304H92.9394V148.448H109.063V112.304H125.187Z" fill="white"/>
<path d="M135.718 164.572V112.304H184.09V164.572H167.966V128.428H151.842V164.572H135.718Z" fill="white"/>
<path d="M46.2648 132.414L66.3748 112.304H46.8177L34.0368 125.085V112.304H17.9128V164.572H34.0368V148.448H50.2508V164.572H66.3748V132.414H46.2648Z" fill="white"/>
<path d="M34.0371 16.2291L34.0628 32.3788H50.3411V16.2291H34.0371Z" fill="white"/>
<path d="M184.09 32.3657V16.2289H76.841V64.1637H167.94V80.3134H66.4646V48.5926H50.3406V80.3391H34.0366V48.5926H17.9126V96.4631H184.09V48.5155H92.9908V32.3657H184.09Z" fill="white"/>
<path d="M125.187 112.304V164.572H76.8154V112.304H92.9394V148.448H109.063V112.304H125.187Z" fill="white"/>
<path d="M135.718 164.572V112.304H184.09V164.572H167.966V128.428H151.842V164.572H135.718Z" fill="white"/>
<path d="M46.2648 132.414L66.3748 112.304H46.8177L34.0368 125.085V112.304H17.9128V164.572H34.0368V148.448H50.2508V164.572H66.3748V132.414H46.2648Z" fill="white"/>
</g>
<defs>
<clipPath id="clip0_86_1717">
<rect width="202" height="180.797" fill="white"/>
</clipPath>
</defs>
</svg>
